<svg width="100" height="100" viewBox="0 0 100 100" fill="none" xmlns="http://www.w3.org/2000/svg">
<path d="M57 75.2272C57 78.4807 53.3225 80.3732 50.675 78.4822L30.0431 63.7451C29.3647 63.2605 28.5518 63 27.7181 63H13C10.7909 63 9 61.2091 9 59V42C9 39.7909 10.7909 38 13 38H27.7181C28.5518 38 29.3647 37.7395 30.0431 37.2549L50.675 22.5178C53.3225 20.6268 57 22.5193 57 25.7728V75.2272Z" fill="white"/>
<line x1="65.6569" y1="42" x2="82.6274" y2="58.9706" stroke="white" stroke-width="8" stroke-linecap="round"/>
<line x1="4" y1="-4" x2="28" y2="-4" transform="matrix(0.707107 -0.707107 -0.707107 -0.707107 60 58.6274)" stroke="white" stroke-width="8" stroke-linecap="round"/>
</svg>
